<svg xmlns="http://www.w3.org/2000/svg" xmlns:xlink="http://www.w3.org/1999/xlink" width="500" zoomAndPan="magnify" viewBox="0 0 375 374.999991" height="500" preserveAspectRatio="xMidYMid meet" version="1.0"><defs><g/><clipPath id="fff503b07c"><path d="M 80 175 L 319.660156 175 L 319.660156 240 L 80 240 Z M 80 175 " clip-rule="nonzero"/></clipPath><clipPath id="c5ebbdfe94"><path d="M 93 230 L 307 230 L 307 241.613281 L 93 241.613281 Z M 93 230 " clip-rule="nonzero"/></clipPath><clipPath id="20e2b01f17"><path d="M 49.660156 113 L 154 113 L 154 233 L 49.660156 233 Z M 49.660156 113 " clip-rule="nonzero"/></clipPath><clipPath id="4df3591c01"><path d="M 151 60.113281 L 262 60.113281 L 262 118 L 151 118 Z M 151 60.113281 " clip-rule="nonzero"/></clipPath></defs><rect x="-37.5" width="450" fill="#ffffff" y="-37.499999" height="449.999989" fill-opacity="1"/><rect x="-37.5" width="450" fill="#ffffff" y="-37.499999" height="449.999989" fill-opacity="1"/><path fill="#cb7d06" d="M 200.859375 119.90625 C 190.765625 119.90625 181.027344 121.410156 171.933594 124.273438 C 168.496094 125.34375 202.722656 126.78125 199.5 128.207031 C 197.210938 129.140625 157.472656 130.070312 155.316406 131.289062 C 144.648438 137.015625 135.128906 144.679688 127.324219 153.84375 C 126.035156 155.417969 197.640625 159.714844 196.421875 161.359375 C 194.277344 164.222656 119.449219 164.441406 117.65625 167.449219 C 116.507812 169.453125 115.445312 171.386719 114.4375 173.394531 C 113.722656 174.753906 136.992188 176.472656 136.347656 177.832031 C 135.703125 179.476562 111.144531 180.695312 110.496094 182.339844 C 106.5625 192.867188 104.335938 204.398438 104.335938 216.351562 C 104.335938 221.507812 104.765625 226.59375 105.554688 231.535156 L 144.074219 188.429688 C 147.007812 185.203125 151.878906 185.203125 154.8125 188.429688 L 163.90625 198.664062 L 190.757812 168.664062 C 193.691406 165.441406 198.5625 165.441406 201.503906 168.664062 L 211.234375 179.546875 L 214.105469 176.328125 C 217.039062 173.105469 221.910156 173.105469 224.84375 176.328125 L 240.234375 193.511719 L 244.820312 188.429688 C 247.691406 185.203125 252.554688 185.203125 255.496094 188.429688 L 295.808594 233.46875 C 297.019531 225.445312 298.097656 207.832031 294.589844 193.511719 C 294.085938 191.363281 293.800781 190.292969 293.160156 188.214844 C 292.734375 186.925781 270.460938 185.636719 270.03125 184.347656 C 269.605469 183.207031 290.65625 180.980469 290.226562 179.835938 C 285 167.164062 277.195312 155.773438 267.386719 146.464844 C 264.738281 143.960938 232.230469 141.382812 229.363281 139.164062 C 226.785156 137.230469 253.777344 135.65625 251.0625 133.933594 C 236.378906 124.988281 219.1875 119.90625 200.859375 119.90625 Z M 200.859375 119.90625 " fill-opacity="1" fill-rule="evenodd"/><path fill="#e18903" d="M 107.554688 225.664062 C 107.269531 222.582031 107.054688 219.503906 107.054688 216.351562 C 107.054688 205.398438 108.984375 194.582031 112.710938 184.273438 C 118.007812 182.984375 145.722656 182.769531 145.792969 178.257812 C 145.867188 174.179688 129.894531 171.742188 126.816406 171.238281 C 133.402344 169.59375 164.699219 169.160156 188.96875 167.085938 L 163.90625 195.011719 L 156.605469 186.847656 C 152.734375 182.550781 146.21875 182.550781 142.285156 186.847656 Z M 107.554688 225.664062 " fill-opacity="1" fill-rule="evenodd"/><path fill="#e18903" d="M 257.355469 186.996094 C 268.382812 188.640625 290.796875 189.789062 291.371094 192.007812 C 293.160156 200.597656 294.234375 215.207031 293.660156 227.519531 Z M 257.355469 186.996094 " fill-opacity="1" fill-rule="evenodd"/><path fill="#e18903" d="M 244.035156 133.152344 C 239.808594 133.792969 204.078125 135.371094 204.007812 139.953125 C 203.933594 146.542969 259.5 145.46875 265.589844 148.550781 C 274.109375 156.710938 281.058594 166.378906 285.996094 177.046875 C 286.785156 178.769531 260.578125 181.917969 253.277344 184.136719 C 249.769531 182.921875 245.757812 183.851562 243.035156 186.859375 L 240.242188 189.941406 L 226.640625 174.757812 C 222.707031 170.390625 216.183594 170.390625 212.316406 174.757812 L 211.242188 175.976562 L 203.296875 167.097656 C 202.796875 166.59375 202.363281 166.097656 201.796875 165.734375 C 211.679688 164.375 218.476562 162.515625 218.546875 159.863281 C 218.757812 154.703125 141.785156 153.484375 132.476562 152.199219 C 140.351562 143.820312 146.441406 138.667969 156.535156 133.722656 C 170.355469 132.941406 203.9375 130.070312 210.527344 129 C 215.683594 128.136719 198.136719 124.703125 190.335938 123.195312 C 193.769531 122.839844 197.28125 122.621094 200.859375 122.621094 C 215.964844 122.621094 230.714844 126.207031 244.035156 133.152344 Z M 244.035156 133.152344 " fill-opacity="1" fill-rule="evenodd"/><path fill="#373737" d="M 107.269531 233.179688 L 145.867188 190.074219 C 147.871094 187.855469 151.089844 187.855469 153.027344 190.074219 L 163.914062 202.25 L 192.550781 170.242188 C 194.558594 168.09375 197.710938 168.09375 199.71875 170.242188 L 211.242188 183.128906 L 215.902344 177.902344 C 217.902344 175.683594 221.058594 175.683594 223.0625 177.902344 L 240.246094 197.089844 L 246.554688 190.070312 C 248.554688 187.851562 251.777344 187.851562 253.714844 190.070312 L 292.382812 233.175781 C 264.097656 227.015625 232.734375 223.585938 199.792969 223.585938 C 166.847656 223.589844 135.554688 227.023438 107.269531 233.179688 Z M 107.269531 233.179688 " fill-opacity="1" fill-rule="evenodd"/><path fill="#ffffff" d="M 151.949219 191.007812 L 163.90625 204.320312 L 173.714844 217.425781 C 171.425781 215.640625 165.910156 209.835938 161.042969 205.683594 C 159.324219 204.25 156.242188 209.695312 155.3125 207.546875 C 154.386719 205.328125 150.011719 193.226562 147.941406 190.214844 C 149.296875 189.5 150.878906 189.789062 151.949219 191.007812 Z M 151.949219 191.007812 " fill-opacity="1" fill-rule="evenodd"/><g clip-path="url(#fff503b07c)"><path fill="#222222" d="M 109.992188 232.25 L 143.214844 194.945312 C 143.355469 194.804688 140.847656 202.820312 142.859375 202.535156 C 144.71875 202.25 146.078125 197.382812 146.652344 199.457031 C 148.085938 204.972656 152.664062 211.195312 154.882812 216.421875 C 155.75 218.574219 159.113281 207.113281 160.761719 208.546875 C 163.121094 210.550781 164.480469 211.699219 168.777344 215.28125 C 169.710938 216.066406 161.976562 214.847656 162.90625 215.640625 C 164.410156 216.855469 170.710938 220.292969 173.855469 221.652344 C 175.359375 222.296875 177.082031 223.011719 178.726562 223.65625 C 179.804688 223.65625 180.875 223.585938 182.023438 223.515625 L 175.359375 217.136719 L 164.839844 203.320312 L 189.898438 175.324219 C 190.332031 174.96875 186.679688 185.132812 188.828125 185.785156 C 190.402344 186.285156 195.917969 179.121094 196.128906 180.769531 C 196.988281 186.285156 197.207031 191.082031 197.632812 199.246094 C 197.703125 201.105469 200.929688 188.644531 201.355469 190.4375 C 202.5 195.234375 205.363281 205.976562 207.152344 211.632812 C 207.582031 213 203.074219 210.417969 203.507812 211.703125 C 204.648438 215.140625 217.472656 221.804688 217.542969 222.085938 C 213.390625 218.003906 211.667969 216.570312 210.308594 213.210938 C 208.160156 207.695312 209.945312 201.898438 211.960938 201.828125 C 215.964844 201.6875 220.195312 205.191406 225.066406 209.917969 C 226.351562 211.277344 219.765625 209.34375 221.125 210.847656 C 221.984375 211.703125 225.210938 212.78125 227.425781 214.214844 C 231.433594 216.867188 239.667969 219.375 241.460938 221.089844 L 229.859375 210.917969 L 212.316406 184.066406 C 212.960938 183.28125 213.894531 182.921875 215.683594 182.996094 C 216.617188 183.066406 217.980469 182.207031 219.191406 183.640625 C 222.847656 188.296875 227.640625 197.527344 231.371094 201.972656 C 233.304688 204.332031 233.164062 195.597656 234.878906 197.746094 C 238.027344 201.6875 243.328125 208.558594 246.90625 212.570312 C 247.550781 213.285156 241.109375 209.203125 241.746094 209.917969 C 242.964844 211.277344 246.332031 214.785156 248.472656 216.363281 C 251.625 218.65625 256.355469 219.445312 256.992188 219.871094 L 250.121094 212.429688 L 241.3125 198.039062 L 244.820312 194.171875 C 245.109375 193.886719 245.109375 199.1875 247.472656 200.046875 C 248.902344 200.621094 250.054688 194.964844 251.121094 196.828125 C 254.992188 203.980469 261.792969 216.230469 264.867188 222.3125 C 266.296875 225.035156 271.671875 227.753906 271.960938 228.109375 L 267.878906 221.453125 L 267.296875 212.359375 L 289.5 232.191406 C 299.808594 234.410156 309.765625 236.917969 319.289062 239.855469 C 282.769531 231.765625 242.382812 227.253906 199.777344 227.253906 C 157.242188 227.253906 116.785156 231.769531 80.339844 239.855469 C 89.796875 236.980469 99.679688 234.398438 109.992188 232.25 Z M 109.992188 232.25 " fill-opacity="1" fill-rule="evenodd"/></g><path fill="#ffffff" d="M 205.941406 201.679688 C 205.367188 195.234375 195.34375 170.460938 197.5625 169.957031 L 209.742188 184.847656 L 226.066406 208.261719 C 221.265625 204.25 214.964844 197.664062 210.527344 198.167969 C 208.734375 198.308594 207.089844 199.386719 205.941406 201.679688 Z M 205.941406 201.679688 " fill-opacity="1" fill-rule="evenodd"/><path fill="#ffffff" d="M 230.792969 197.949219 C 228.859375 195.585938 221.769531 182.699219 218.828125 177.761719 C 219.976562 177.542969 221.117188 177.902344 221.980469 178.902344 L 240.242188 199.238281 L 243.390625 205.035156 C 239.882812 201.164062 237.378906 198.300781 234.4375 195.152344 C 232.578125 193.15625 232.71875 200.316406 230.792969 197.949219 Z M 230.792969 197.949219 " fill-opacity="1" fill-rule="evenodd"/><path fill="#ffffff" d="M 264.585938 218.214844 C 263.726562 217.285156 255.851562 198.8125 250.195312 189.789062 C 251.054688 189.789062 251.988281 190.214844 252.703125 191.007812 L 276.402344 217.496094 L 265.953125 208.976562 Z M 264.585938 218.214844 " fill-opacity="1" fill-rule="evenodd"/><g clip-path="url(#c5ebbdfe94)"><path fill="#222222" d="M 199.78125 230.535156 C 160.6875 230.535156 124.097656 234.617188 93.023438 241.777344 C 125.601562 236.332031 161.765625 233.25 199.78125 233.25 C 237.875 233.25 273.96875 236.332031 306.617188 241.777344 C 275.535156 234.617188 238.953125 230.535156 199.78125 230.535156 Z M 199.78125 230.535156 " fill-opacity="1" fill-rule="evenodd"/></g><g clip-path="url(#20e2b01f17)"><path fill="#222222" d="M 120.316406 156.851562 C 119.449219 157.351562 118.59375 157.785156 117.734375 158.28125 C 118.089844 159 118.523438 159.855469 119.019531 160.859375 C 119.449219 159.574219 119.8125 158.28125 120.316406 156.851562 Z M 111.789062 162.648438 C 109.789062 164.441406 107.996094 166.515625 106.351562 168.808594 C 105.851562 167.667969 105.347656 166.589844 104.851562 165.441406 C 104.921875 168.375 103.488281 170.242188 103.558594 173.246094 C 102.058594 176.613281 99.550781 180.625 97.902344 184.0625 C 102.835938 196.304688 108.710938 207.40625 113.652344 216.5 C 112.289062 196.738281 112.148438 185.496094 117.304688 166.882812 C 115.445312 165.371094 113.582031 163.867188 111.789062 162.648438 Z M 97.46875 182.914062 C 96.179688 166.304688 101.117188 160.71875 109.136719 156.921875 L 107.492188 151.476562 L 106.917969 151.476562 L 106.050781 157.132812 L 99.75 150.832031 C 99.324219 151.261719 98.828125 151.617188 98.324219 152.050781 C 95.242188 152.980469 91.945312 153.554688 88.871094 154.488281 C 90.8125 164.300781 93.890625 173.890625 97.46875 182.914062 Z M 115.445312 154.417969 C 116.65625 153.914062 117.949219 153.484375 119.238281 152.980469 C 117.664062 152.625 115.367188 152.339844 113.582031 151.980469 C 114.226562 152.839844 114.871094 153.703125 115.445312 154.417969 Z M 113.007812 151.265625 C 113.371094 150.40625 114.148438 149.546875 114.371094 148.613281 C 113.582031 149.1875 112.796875 149.6875 112.082031 150.1875 C 112.363281 150.546875 112.722656 150.910156 113.007812 151.265625 Z M 88.808594 154.128906 C 90.097656 152.695312 93.820312 148.761719 97.109375 145.898438 L 95.894531 142.886719 C 95.179688 143.960938 94.535156 144.960938 93.820312 145.96875 C 91.886719 145.105469 89.164062 144.246094 87.304688 143.460938 C 87.589844 147.039062 88.160156 150.546875 88.808594 154.128906 Z M 105.769531 143.175781 C 111.214844 144.464844 119.160156 147.828125 119.160156 147.828125 C 119.160156 147.828125 119.089844 137.589844 120.167969 136.160156 C 121.3125 134.800781 121.742188 135.515625 123.101562 136.375 C 124.460938 137.160156 128.113281 140.171875 128.113281 140.171875 C 126.535156 140.386719 124.964844 140.597656 123.390625 140.746094 C 123.675781 141.605469 124.3125 141.320312 124.601562 142.171875 C 124.171875 143.390625 123.460938 145.609375 123.027344 146.898438 C 123.027344 146.898438 128.542969 141.027344 132.761719 139.234375 C 136.984375 137.441406 140.140625 138.878906 142.5 139.660156 C 144.867188 140.453125 153.671875 146.109375 153.671875 146.109375 C 153.671875 146.109375 143.933594 145.03125 142.429688 145.316406 C 140.925781 145.605469 135.984375 143.316406 135.984375 143.316406 C 136.699219 144.53125 137.914062 144.742188 138.699219 146.039062 C 136.046875 146.824219 134.261719 147.683594 131.6875 148.402344 C 130.542969 147.757812 128.039062 148.117188 126.890625 147.472656 C 127.464844 148.691406 128.96875 148.117188 129.46875 149.265625 C 127.960938 149.839844 125.53125 152.199219 124.027344 152.703125 C 124.027344 152.703125 135.269531 158.859375 136.84375 161.367188 C 138.417969 163.871094 141.714844 172.398438 141.933594 174.324219 C 142.21875 176.257812 143.144531 186.855469 143.144531 186.855469 C 140.429688 183.921875 137.921875 179.195312 135.199219 176.1875 C 135.484375 172.609375 135.625 170.746094 135.914062 167.09375 C 134.914062 168.597656 133.910156 170.101562 132.910156 171.601562 C 131.691406 169.238281 130.472656 166.875 129.257812 164.441406 C 129.179688 162.648438 129.179688 160.859375 129.117188 159.070312 C 128.253906 159.570312 127.394531 160.144531 126.535156 160.648438 C 125.246094 159.574219 123.3125 158.28125 121.949219 157.140625 C 121.304688 159.21875 120.738281 161.359375 120.234375 163.441406 C 122.234375 167.667969 124.390625 172.175781 124.390625 172.175781 C 122.746094 171.175781 121.023438 169.816406 119.300781 168.453125 C 115.648438 190.003906 120.308594 212.273438 122.171875 224.800781 L 118.519531 225.300781 C 119.015625 226.308594 119.589844 227.230469 120.09375 228.164062 C 117.441406 229.667969 114.792969 231.101562 112.140625 232.601562 C 95.453125 196.300781 89.011719 182.980469 85.289062 143.742188 C 80.710938 149.539062 77.414062 156.273438 75.984375 164.292969 C 74.90625 163.078125 73.835938 161.929688 72.765625 160.710938 C 74.265625 164.363281 73.621094 167.296875 75.128906 170.953125 C 75.128906 176.109375 74.269531 182.621094 74.269531 187.78125 C 59.808594 158.136719 69.691406 151.546875 82.292969 139.304688 C 80.070312 139.445312 76.917969 140.234375 74.773438 140.453125 C 74.554688 139.015625 75.128906 137.226562 74.914062 135.796875 C 73.835938 137.519531 72.910156 139.015625 71.902344 140.738281 C 69.109375 141.957031 65.394531 143.75 62.671875 144.960938 C 62.746094 142.671875 62.886719 140.382812 62.957031 138.085938 C 61.527344 140.738281 60.667969 143.890625 59.238281 146.535156 C 56.230469 149.113281 52.722656 151.191406 49.714844 153.765625 C 49.714844 153.765625 55.011719 135.9375 58.519531 133.5 C 62.03125 130.996094 79.714844 132.859375 79.714844 132.859375 C 79.714844 132.859375 74.707031 120.039062 75.207031 117.820312 C 75.710938 115.601562 76.570312 116.394531 78.425781 116.890625 C 80.289062 117.394531 85.65625 119.683594 85.65625 119.683594 C 84.082031 120.542969 82.4375 121.40625 80.863281 122.261719 C 81.578125 123.191406 82.152344 122.617188 82.863281 123.546875 C 83.003906 125.195312 83.292969 128.34375 83.4375 130.066406 C 83.4375 130.066406 86.589844 120.539062 90.242188 116.605469 C 93.964844 112.664062 98.046875 113.167969 100.980469 113.238281 C 103.914062 113.308594 116.164062 116.820312 116.164062 116.820312 C 116.164062 116.820312 105.136719 119.398438 103.632812 120.328125 C 102.128906 121.257812 95.683594 120.398438 95.683594 120.398438 C 97.109375 121.6875 98.546875 121.476562 99.902344 122.761719 C 97.472656 124.765625 95.96875 126.558594 93.535156 128.558594 C 91.953125 128.203125 89.445312 129.636719 87.878906 129.273438 C 89.09375 130.5625 90.382812 129.203125 91.523438 130.492188 C 90.160156 131.78125 88.660156 135.722656 87.304688 137.007812 C 87.304688 137.007812 102.410156 140.160156 105.34375 142.734375 C 105.488281 142.886719 105.628906 143.035156 105.769531 143.175781 Z M 105.769531 143.175781 " fill-opacity="1" fill-rule="evenodd"/></g><g clip-path="url(#4df3591c01)"><path fill="#222222" d="M 171.648438 98.066406 L 169.28125 92.191406 L 171.710938 90.976562 C 172.574219 90.546875 174.933594 91.261719 175.648438 91.691406 L 181.589844 95.125 L 194.90625 88.035156 L 186.601562 83.523438 L 151.371094 74 L 153.304688 71.207031 C 153.304688 71.207031 153.730469 70.492188 155.808594 69.84375 L 189.320312 72.28125 L 196.199219 67.980469 C 197.269531 67.339844 198.914062 68.050781 199.917969 69.628906 C 200.707031 70.84375 200.777344 72.203125 200.28125 73.0625 L 221.476562 74.640625 L 238.738281 65.617188 C 239.453125 65.183594 242.027344 62.464844 245.75 61.320312 C 249.832031 60.101562 250.050781 60.820312 252.554688 61.03125 C 255.921875 61.320312 260.003906 60.101562 261.003906 63.398438 C 263.371094 71.203125 229.210938 87.601562 228 87.960938 L 231.148438 87.890625 L 230.070312 95.554688 C 230.863281 95.695312 231.574219 96.269531 232.078125 97.199219 C 232.792969 98.488281 232.652344 99.992188 231.714844 100.496094 L 229.285156 101.925781 L 227.859375 112.59375 C 227.640625 114.59375 226.710938 115.386719 225.5625 115.890625 L 222.195312 117.246094 L 217.261719 101.0625 L 208.664062 97.125 C 207.949219 97.339844 203.792969 99.417969 194.769531 102.207031 C 184.3125 105.355469 181.308594 105.789062 180.59375 106.074219 L 180.953125 111.515625 C 181.027344 112.445312 178.664062 113.664062 178.019531 113.230469 L 170.429688 107.644531 C 169.351562 108.003906 166.558594 108.507812 166.277344 107.644531 C 165.914062 106.425781 166.207031 105.859375 166.707031 105.355469 L 152.097656 98.195312 C 151.957031 98.125 151.886719 98.054688 151.886719 97.976562 L 151.886719 97.90625 C 151.667969 97.117188 153.679688 95.402344 156.109375 95.828125 L 170.5 97.90625 C 170.925781 97.996094 171.285156 97.996094 171.648438 98.066406 Z M 171.648438 98.066406 " fill-opacity="1" fill-rule="evenodd"/></g><g fill="#222222" fill-opacity="1"><g transform="translate(82.430698, 277.048095)"><g><path d="M 6.960938 -19.265625 C 8.546875 -17.667969 13.058594 -13.117188 14.402344 -13.214844 L 21.683594 -19.410156 C 21.683594 -19.410156 16.757812 -5.238281 16.996094 -1.9375 C 17.113281 -0.335938 19.554688 0.214844 21.15625 0.117188 C 22.289062 -3.128906 27.003906 -19.277344 29.363281 -25.117188 C 28.917969 -26.539062 27.363281 -27.445312 26.21875 -28.210938 C 22.539062 -26.976562 14.515625 -17.875 13.542969 -17.230469 C 12.441406 -17.152344 6.8125 -24.667969 4.253906 -26.125 C 3.054688 -25.953125 3.066406 -25.328125 2.824219 -24.136719 C 1.519531 -17.539062 -1.773438 -9.710938 -1.351562 -3.898438 C -1.285156 -2.949219 0.859375 -1.253906 2.339844 -1.363281 C 2.753906 -1.390625 2.78125 -1.738281 2.921875 -2.40625 C 3.761719 -6.359375 5.851562 -14.273438 6.960938 -19.265625 Z M 6.960938 -19.265625 "/></g></g></g><g fill="#222222" fill-opacity="1"><g transform="translate(110.0099, 275.083729)"><g><path d="M 12.160156 -21.636719 C 11.824219 -19.769531 10.886719 -16.410156 10.179688 -14.65625 C 9.058594 -15.730469 7.839844 -16.175781 6.617188 -16.101562 C 4.964844 -16.003906 3.335938 -14.972656 1.964844 -13.320312 C 0.324219 -11.300781 -2.128906 -7.835938 -1.953125 -4.875 C -1.910156 -4.171875 -1.710938 -3.472656 -1.328125 -2.859375 C -0.773438 -1.976562 2.847656 -0.03125 3.933594 -0.0976562 C 5.5 -0.191406 6.515625 -1.722656 7.816406 -2.507812 C 8.761719 -1.40625 9.679688 -1.066406 11.019531 -0.625 C 11.054688 -0.613281 11.109375 -0.613281 11.160156 -0.617188 C 12.191406 -0.679688 16.648438 -3.003906 19.363281 -7.902344 C 19.546875 -8.238281 19.785156 -8.929688 19.742188 -9.617188 C 19.714844 -10.046875 19.585938 -10.472656 19.257812 -10.796875 L 18.609375 -11.222656 C 16.992188 -9.398438 13.492188 -5.234375 11.890625 -5.136719 C 11.769531 -5.128906 11.664062 -5.15625 11.578125 -5.1875 C 13.113281 -11.535156 16.398438 -19.558594 17.488281 -24.167969 C 16.839844 -25.183594 15.078125 -26.910156 13.988281 -27.484375 C 12.949219 -27.230469 12.328125 -22.597656 12.160156 -21.636719 Z M 9.191406 -11.800781 C 9.371094 -8.804688 5.671875 -5.125 3.351562 -4.019531 C 3.222656 -4.183594 3.160156 -4.371094 3.148438 -4.558594 C 3.132812 -4.820312 3.203125 -5.082031 3.273438 -5.328125 C 4.144531 -8.109375 6.535156 -11.46875 8.980469 -12.773438 C 9.101562 -12.46875 9.171875 -12.144531 9.191406 -11.800781 Z M 9.191406 -11.800781 "/></g></g></g><g fill="#222222" fill-opacity="1"><g transform="translate(128.774361, 273.973336)"><g/></g></g><g fill="#222222" fill-opacity="1"><g transform="translate(139.499763, 273.393126)"><g><path d="M 4.679688 -0.363281 C 8.941406 -0.792969 16.003906 -3.933594 21.429688 -5.78125 C 21.90625 -5.941406 22.039062 -6.066406 22.015625 -6.53125 C 21.96875 -7.582031 21.296875 -8 20.46875 -7.964844 C 20.296875 -7.957031 20.109375 -7.933594 19.917969 -7.890625 C 14.832031 -6.628906 5.585938 -4.820312 4.484375 -4.773438 C 4.417969 -4.769531 4.363281 -4.769531 4.382812 -4.785156 C 6.121094 -8.023438 12.097656 -19.265625 12.503906 -25.292969 C 11.828125 -26.109375 9.574219 -27.941406 8.023438 -27.875 C 7.265625 -27.839844 6.664062 -27.347656 6.496094 -26.097656 C 6.246094 -24.273438 -0.820312 -9.597656 -1.667969 -4.191406 C 3.773438 -0.582031 4.316406 -0.347656 4.644531 -0.359375 Z M 4.679688 -0.363281 "/></g></g></g><g fill="#222222" fill-opacity="1"><g transform="translate(159.708181, 272.501924)"><g><path d="M 8.582031 -3.449219 C 8.96875 -1.199219 10.925781 0.113281 13.203125 0.0390625 C 14.359375 0 15.949219 -1.382812 16.730469 -2.324219 C 17.691406 -3.480469 21.515625 -9.371094 21.515625 -9.371094 L 19.890625 -10.957031 C 19.816406 -11.042969 14.101562 -4.496094 12.863281 -4.386719 C 12.535156 -4.359375 12.371094 -4.679688 12.363281 -4.921875 C 12.320312 -6.199219 14.621094 -11.089844 14.582031 -12.261719 C 14.554688 -13.039062 11.863281 -14.070312 11.277344 -14.046875 C 11.054688 -14.042969 10.832031 -13.964844 10.699219 -13.804688 C 9.703125 -12.667969 7.902344 -4.683594 4.902344 -4.582031 C 4.730469 -4.578125 4.554688 -4.605469 4.363281 -4.652344 C 4.121094 -4.679688 4.085938 -5.230469 4.070312 -5.675781 L 4.058594 -5.988281 C 4.035156 -6.78125 4.988281 -10.644531 5.296875 -11.828125 C 5.421875 -12.210938 5.476562 -12.542969 5.46875 -12.816406 C 5.425781 -14.109375 4.035156 -14.441406 2.203125 -14.433594 C 1.8125 -14.28125 1.183594 -14.019531 0.953125 -13.148438 C 0.359375 -10.796875 -1.421875 -7.855469 -1.339844 -5.476562 C -1.292969 -3.996094 -0.574219 -2.671875 0.910156 -2.152344 C 1.925781 -1.789062 3.664062 -0.882812 5.09375 -0.929688 C 6.542969 -0.980469 7.875 -2.40625 8.582031 -3.449219 Z M 8.582031 -3.449219 "/></g></g></g><g fill="#222222" fill-opacity="1"><g transform="translate(179.19478, 271.855269)"><g><path d="M 0.0976562 -13.289062 C -0.566406 -13.734375 -1.972656 -14.0625 -2.871094 -14.039062 C -3.386719 -14.027344 -3.746094 -13.898438 -3.738281 -13.640625 C -3.734375 -13.449219 -3.519531 -13.160156 -2.996094 -12.796875 C 1.484375 -7.542969 1.75 -7.324219 2.042969 -6.675781 C -1.992188 -1.761719 -7.417969 5.550781 -8.332031 9.007812 C -8.199219 10.210938 -6.480469 10.617188 -5.949219 11.140625 C -5.628906 9.40625 3.089844 -1.269531 4.457031 -2.507812 C 6.132812 -0.359375 9.082031 5.050781 12.152344 7.148438 C 12.332031 6.730469 12.671875 6.550781 12.664062 6.238281 C 12.660156 6.050781 12.515625 5.8125 12.160156 5.457031 C 10.34375 2.484375 12.699219 6.203125 6.425781 -4.492188 C 8.089844 -6.34375 11.558594 -11.003906 15.289062 -14.410156 L 12.242188 -18.230469 C 9.144531 -15.894531 5.957031 -11.519531 3.753906 -8.546875 C 1.925781 -11.347656 1.378906 -12.40625 0.0976562 -13.289062 Z M 0.0976562 -13.289062 "/></g></g></g><g fill="#222222" fill-opacity="1"><g transform="translate(193.236377, 271.508958)"><g/></g></g><g fill="#222222" fill-opacity="1"><g transform="translate(203.990902, 271.308213)"><g><path d="M 0.324219 -1.761719 C 0.34375 -0.0898438 1.617188 1.082031 2.824219 1.066406 C 3.636719 1.058594 4.421875 0.496094 4.785156 -0.820312 C 6.695312 -8.003906 9.867188 -16.183594 11.914062 -23.542969 L 20.832031 -24.671875 L 20.355469 -26.910156 C 12.734375 -26.742188 5.261719 -25.734375 -2.316406 -24.894531 C -3.074219 -24.816406 -3.398438 -24.5 -3.394531 -24.089844 C -3.382812 -23.140625 -2.492188 -22.355469 0.0429688 -22.390625 C 2.195312 -22.503906 5.796875 -23.050781 5.796875 -23.050781 C 4.578125 -17.101562 0.457031 -7.5625 0.320312 -1.882812 Z M 0.324219 -1.761719 "/></g></g></g><g fill="#222222" fill-opacity="1"><g transform="translate(215.510741, 271.150355)"><g><path d="M 8.378906 -4.011719 C 8.371094 -5.527344 9.070312 -7 9.941406 -8.382812 C 11.054688 -10.148438 13.550781 -14.574219 15.167969 -15.117188 C 15.460938 -15.207031 15.597656 -15.34375 15.597656 -15.550781 C 15.59375 -16.328125 14.773438 -18.050781 13.976562 -18.546875 C 13.789062 -18.476562 13.511719 -18.4375 13.339844 -18.300781 C 12.464844 -17.554688 11.417969 -16.632812 10.453125 -16.027344 C 8.71875 -14.929688 6.617188 -14.472656 4.476562 -14.460938 C 3.253906 -14.453125 2.917969 -15.675781 1.917969 -15.671875 C 1.746094 -15.671875 1.558594 -15.632812 1.351562 -15.566406 C 0.5625 -14.734375 1.113281 -11.40625 0.445312 -10.316406 C 0.222656 -9.96875 -0.1875 -9.535156 -0.324219 -9.15625 L 0.269531 -7.503906 C 0.359375 -7.382812 0.480469 -7.332031 0.652344 -7.332031 C 1.960938 -7.339844 3.191406 -9.777344 3.441406 -11.453125 C 3.753906 -11.109375 4.324219 -10.921875 4.925781 -10.925781 C 5.410156 -10.929688 5.910156 -11.050781 6.339844 -11.332031 C 5.46875 -9.945312 3.347656 -6.242188 3.363281 -3.621094 C 3.367188 -2.621094 3.734375 -1.863281 4.511719 -1.28125 C 6.261719 0.0351562 8.804688 1.265625 10.960938 1.804688 C 14.761719 -0.472656 16.3125 -3.707031 18.042969 -6.199219 C 18.832031 -7.324219 19.566406 -8.46875 19.5625 -9.277344 C 19.558594 -9.65625 18.726562 -10.410156 18.125 -10.410156 C 17.96875 -10.40625 17.847656 -10.371094 17.746094 -10.269531 C 17.660156 -10.183594 17.179688 -9.523438 16.410156 -8.691406 C 14.882812 -7.046875 10.421875 -2.554688 8.835938 -2.546875 C 8.609375 -2.546875 8.382812 -2.925781 8.378906 -4.011719 Z M 8.378906 -4.011719 "/></g></g></g><g fill="#222222" fill-opacity="1"><g transform="translate(232.789801, 271.047098)"><g><path d="M 11.996094 1.335938 C 13.222656 1.34375 14.535156 1.023438 15.761719 0.375 C 18.667969 -1.128906 21.230469 -3.304688 23.074219 -6.039062 C 23.300781 -6.367188 23.492188 -6.882812 23.496094 -7.46875 C 23.5 -8.125 23.261719 -8.902344 22.523438 -9.648438 C 19.992188 -7.003906 14.136719 -2.082031 12.671875 -2.089844 C 12.445312 -2.09375 12.308594 -2.195312 12.308594 -2.457031 C 12.308594 -2.523438 12.328125 -2.59375 12.347656 -2.679688 C 12.753906 -4.558594 13.570312 -6.191406 14.839844 -8.066406 C 15.515625 -9.078125 15.832031 -9.628906 15.832031 -10.113281 C 15.835938 -10.648438 15.460938 -11.132812 14.6875 -12.050781 C 14.308594 -12.5 13.878906 -12.675781 13.484375 -12.675781 C 13.019531 -12.679688 12.566406 -12.441406 12.289062 -12.132812 C 10.453125 -13.867188 8.734375 -14.667969 7.09375 -14.675781 C 5.144531 -14.6875 3.292969 -13.574219 1.457031 -11.632812 C 0.121094 -10.210938 -0.734375 -8.488281 -0.742188 -6.4375 C -0.75 -5.058594 -0.378906 -3.539062 0.476562 -1.859375 C 0.714844 -1.410156 1.9375 -0.972656 3.523438 -0.964844 C 4.988281 -0.957031 6.769531 -1.3125 8.34375 -2.355469 C 8.183594 -1.90625 8.011719 -1.441406 8.007812 -0.992188 C 8 0.695312 10.703125 1.332031 11.996094 1.335938 Z M 9.097656 -11.542969 C 10.132812 -11.539062 11.265625 -10.792969 11.261719 -10.308594 C 11.261719 -10.273438 11.261719 -10.238281 11.246094 -10.203125 C 10.007812 -7.625 7.816406 -4.289062 5.09375 -4.304688 C 4.507812 -4.304688 4.058594 -4.464844 4.0625 -5.171875 C 4.070312 -7.015625 7.320312 -11.207031 8.664062 -11.496094 C 8.804688 -11.527344 8.941406 -11.542969 9.097656 -11.542969 Z M 9.097656 -11.542969 "/></g></g></g><g fill="#222222" fill-opacity="1"><g transform="translate(255.046054, 271.163099)"><g><path d="M 16.730469 -6.28125 C 17.273438 -5.667969 18.109375 -4.964844 19.054688 -4.949219 C 21.023438 -4.914062 25.289062 -6.277344 25.332031 -8.882812 C 25.34375 -9.589844 24.777344 -9.855469 24.035156 -9.867188 C 22.449219 -9.894531 21.347656 -9.015625 20.125 -9.035156 C 18.003906 -9.070312 15.03125 -11.84375 14.296875 -12.476562 C 14.078125 -12.671875 13.820312 -12.847656 13.527344 -12.851562 C 13.097656 -12.859375 12.953125 -12.515625 12.945312 -12.085938 C 12.9375 -11.464844 13.214844 -10.648438 13.484375 -10.285156 C 12.898438 -7.066406 11.355469 -0.191406 7.414062 0.15625 C 7.21875 -0.46875 7.105469 -0.988281 7.113281 -1.523438 C 7.15625 -4.023438 9.128906 -5.492188 10.472656 -8.488281 C 9.886719 -11.757812 8.683594 -13 6.648438 -13.035156 C 3.804688 -13.082031 -0.847656 -9.414062 -0.871094 -7.914062 C -0.882812 -7.257812 -0.144531 -6.832031 0.472656 -6.824219 C 0.941406 -6.816406 1.78125 -7.542969 2.253906 -7.96875 C 3.636719 -9.21875 4.175781 -9.558594 5.761719 -9.566406 L 5.808594 -9.253906 C 4.25 -6.691406 2.015625 -4.105469 1.96875 -1.105469 C 1.917969 1.945312 5.582031 3.472656 8.257812 3.515625 C 12.707031 3.589844 15.558594 -2.109375 16.730469 -6.28125 Z M 16.730469 -6.28125 "/></g></g></g><g fill="#222222" fill-opacity="1"><g transform="translate(276.209163, 271.526122)"><g><path d="M 13.84375 -8.234375 C 11.898438 -6.421875 8.503906 -3.316406 5.867188 -3.386719 C 4.558594 -3.417969 4.277344 -3.980469 4.300781 -4.875 C 4.324219 -5.71875 4.523438 -6.113281 4.902344 -6.722656 C 7.933594 -7.871094 12.355469 -9.5 12.457031 -13.359375 C 12.511719 -15.515625 11.28125 -16.667969 8.917969 -16.730469 C 4.4375 -16.84375 -0.390625 -10.914062 -0.503906 -6.515625 C -0.5625 -4.242188 0.605469 -2.691406 2.335938 -1.628906 C 3.203125 -1.089844 6.289062 0.335938 6.890625 0.351562 C 9.597656 0.417969 15.230469 -4.558594 16.785156 -6.660156 C 17.375 -7.453125 17.832031 -8.410156 17.859375 -9.496094 C 17.875 -10.117188 17.585938 -10.210938 17.257812 -10.21875 C 17.121094 -10.222656 16.980469 -10.207031 16.859375 -10.210938 C 15.652344 -10.242188 14.355469 -8.722656 13.84375 -8.234375 Z M 9.914062 -13.875 C 9.246094 -12.597656 7.910156 -11.027344 6.476562 -10.945312 C 6.886719 -12.089844 8.085938 -13.871094 9.625 -14.019531 C 9.710938 -14.019531 9.796875 -13.929688 9.914062 -13.875 Z M 9.914062 -13.875 "/></g></g></g><g fill="#222222" fill-opacity="1"><g transform="translate(290.796722, 271.904621)"><g><path d="M 6.207031 0.652344 C 9.035156 0.746094 15.367188 -6.5 15.445312 -8.878906 C 15.460938 -9.378906 15.21875 -9.816406 14.75 -9.832031 C 14.542969 -9.839844 14.25 -9.796875 13.984375 -9.5625 C 11.390625 -7.371094 7.765625 -3.679688 5.820312 -3.742188 C 4.835938 -3.773438 4.570312 -6.214844 4.582031 -6.5625 C 9.828125 -9.703125 18.5625 -18.628906 18.90625 -25.882812 C 18.921875 -26.347656 16.875 -30.78125 15.046875 -30.839844 C 12.117188 -30.9375 9.144531 -27.152344 7.847656 -24.902344 C 4.242188 -18.703125 -0.339844 -11.609375 -0.589844 -4.039062 C -0.625 -3.007812 4.449219 0.59375 6.207031 0.652344 Z M 6.324219 -11.714844 C 6.203125 -11.71875 6.1875 -11.773438 6.175781 -11.910156 C 9.757812 -18.523438 12.53125 -23.125 15.847656 -26.8125 C 15.972656 -26.960938 16.230469 -26.972656 16.460938 -27.050781 C 16.234375 -24.933594 14.628906 -22.3125 13.539062 -20.089844 C 12.261719 -17.492188 8.960938 -13.214844 6.324219 -11.714844 Z M 6.324219 -11.714844 "/></g></g></g><g fill="#cb7d06" fill-opacity="1"><g transform="translate(102.639349, 301.831536)"><g><path d="M 4.480469 -3.253906 C 4.539062 -2.941406 4.546875 -2.769531 4.558594 -2.628906 C 4.628906 -2.078125 4.699219 -1.5625 4.804688 -1.011719 C 4.867188 -0.5625 5.195312 -0.34375 5.578125 -0.367188 C 6.027344 -0.363281 6.324219 -0.660156 6.363281 -1.113281 C 6.34375 -1.390625 6.292969 -1.667969 6.273438 -1.910156 C 6.222656 -2.707031 6.136719 -3.5 6.082031 -4.296875 C 6.050781 -4.78125 6.050781 -5.304688 5.984375 -5.785156 C 5.96875 -6.0625 5.808594 -6.367188 5.65625 -6.5625 C 5.429688 -6.828125 5.140625 -6.984375 4.882812 -7.210938 C 4.371094 -7.59375 3.835938 -7.765625 3.179688 -7.6875 C 2.386719 -7.601562 1.710938 -7.277344 1.160156 -6.6875 C -0.144531 -5.382812 -0.351562 -3.769531 0.0742188 -2.058594 C 0.363281 -0.824219 1.609375 -0.382812 2.605469 -1.109375 C 2.96875 -1.378906 3.265625 -1.675781 3.523438 -1.972656 C 3.847656 -2.339844 4.097656 -2.738281 4.480469 -3.253906 Z M 1.644531 -2.507812 C 1.433594 -3.609375 1.398438 -4.648438 2.246094 -5.503906 C 2.476562 -5.730469 2.808594 -5.925781 3.117188 -6.050781 C 3.453125 -6.210938 3.773438 -6.09375 4.039062 -5.761719 C 3.382812 -4.605469 2.769531 -3.347656 1.644531 -2.507812 Z M 1.644531 -2.507812 "/></g></g></g><g fill="#cb7d06" fill-opacity="1"><g transform="translate(115.577777, 300.982498)"><g><path d="M 1.4375 -5.058594 C 2.417969 -5.535156 2.347656 -5.53125 3.667969 -6.128906 C 4.144531 -6.332031 4.398438 -6.695312 4.238281 -7.101562 C 4.109375 -7.511719 3.714844 -7.664062 3.203125 -7.527344 C 2.347656 -7.269531 2.117188 -7.046875 1.339844 -6.722656 C 1.257812 -6.890625 1.214844 -7.0625 1.171875 -7.199219 C 1.046875 -7.503906 0.722656 -7.691406 0.414062 -7.675781 C 0.0664062 -7.621094 -0.195312 -7.394531 -0.246094 -7.078125 C -0.304688 -6.902344 -0.261719 -6.730469 -0.25 -6.558594 C -0.0976562 -4.585938 0.0898438 -2.578125 0.242188 -0.605469 C 0.285156 -0.46875 0.257812 -0.363281 0.296875 -0.261719 C 0.421875 0.078125 0.714844 0.304688 1.058594 0.285156 C 1.371094 0.265625 1.671875 0.0742188 1.757812 -0.277344 C 1.785156 -0.417969 1.808594 -0.59375 1.796875 -0.769531 C 1.726562 -1.980469 1.617188 -3.191406 1.511719 -4.367188 C 1.5 -4.574219 1.453125 -4.78125 1.4375 -5.058594 Z M 1.4375 -5.058594 "/></g></g></g><g fill="#cb7d06" fill-opacity="1"><g transform="translate(126.756648, 300.316234)"><g><path d="M 0.1875 -2.339844 C 0.355469 -1.828125 0.59375 -1.25 1.039062 -0.75 C 2.109375 0.476562 3.90625 0.242188 4.589844 -1.253906 C 5.242188 -2.75 5.226562 -4.277344 4.761719 -5.816406 C 4.472656 -6.738281 3.8125 -7.332031 2.863281 -7.523438 C 2.582031 -7.578125 2.273438 -7.5625 2 -7.441406 C 1.113281 -7.117188 0.488281 -6.457031 0.191406 -5.539062 C -0.171875 -4.511719 -0.117188 -3.46875 0.1875 -2.339844 Z M 3.339844 -5.148438 C 3.601562 -4.121094 3.585938 -3.148438 3.289062 -2.191406 C 3.261719 -2.085938 3.199219 -1.945312 3.132812 -1.835938 C 2.910156 -1.476562 2.527344 -1.457031 2.273438 -1.722656 C 2.160156 -1.820312 2.089844 -1.882812 2.046875 -2.023438 C 1.507812 -2.964844 1.316406 -3.964844 1.675781 -5.027344 C 1.765625 -5.308594 1.996094 -5.597656 2.226562 -5.785156 C 2.628906 -6.050781 2.984375 -5.929688 3.21875 -5.492188 C 3.292969 -5.355469 3.300781 -5.21875 3.339844 -5.148438 Z M 3.339844 -5.148438 "/></g></g></g><g fill="#cb7d06" fill-opacity="1"><g transform="translate(138.45639, 299.68802)"><g><path d="M -0.0390625 -5.246094 C -0.0390625 -5.246094 0.03125 -4.449219 0.0859375 -4.070312 C 0.203125 -3.03125 0.425781 -2.035156 0.886719 -1.117188 C 1.648438 0.304688 3.015625 0.550781 4.179688 -0.511719 C 4.582031 -0.875 4.835938 -1.339844 5.054688 -1.871094 C 5.359375 -2.789062 5.523438 -3.734375 5.617188 -4.679688 C 5.65625 -5.304688 5.695312 -5.933594 5.703125 -6.558594 C 5.714844 -7.046875 5.421875 -7.378906 5 -7.429688 C 4.617188 -7.445312 4.320312 -7.152344 4.238281 -6.664062 C 4.21875 -6.351562 4.199219 -6.035156 4.175781 -5.722656 C 4.136719 -5.128906 4.128906 -4.539062 4.015625 -3.976562 C 3.90625 -3.347656 3.695312 -2.710938 3.476562 -2.144531 C 3.355469 -1.792969 3.058594 -1.464844 2.710938 -1.484375 C 2.328125 -1.5 2.203125 -1.875 2.050781 -2.214844 C 1.695312 -3.101562 1.578125 -4.070312 1.5 -5.039062 C 1.441406 -5.558594 1.414062 -6.113281 1.351562 -6.667969 C 1.296875 -7.117188 1.007812 -7.378906 0.625 -7.363281 C 0.242188 -7.378906 -0.0585938 -7.085938 -0.105469 -6.632812 C -0.0976562 -6.492188 -0.09375 -6.390625 -0.0859375 -6.25 C -0.0703125 -5.90625 -0.0546875 -5.59375 -0.0390625 -5.246094 Z M -0.0390625 -5.246094 "/></g></g></g><g fill="#cb7d06" fill-opacity="1"><g transform="translate(150.99004, 299.095369)"><g><path d="M 1.375 -5.441406 C 1.375 -5.441406 1.371094 -5.578125 1.328125 -6.621094 C 1.320312 -6.792969 1.347656 -7.003906 1.304688 -7.175781 C 1.222656 -7.554688 0.933594 -7.785156 0.550781 -7.804688 C 0.203125 -7.789062 -0.101562 -7.570312 -0.191406 -7.21875 C -0.253906 -7.078125 -0.246094 -6.9375 -0.242188 -6.765625 C -0.09375 -4.824219 0.0234375 -2.851562 0.171875 -0.910156 C 0.214844 -0.738281 0.253906 -0.566406 0.296875 -0.429688 C 0.449219 -0.0546875 0.734375 0.144531 1.117188 0.128906 C 1.460938 0.078125 1.730469 -0.140625 1.785156 -0.558594 C 1.808594 -0.769531 1.835938 -1.011719 1.828125 -1.222656 C 1.835938 -2.714844 2.335938 -4.019531 3.226562 -5.203125 C 3.460938 -5.492188 3.65625 -5.777344 4.070312 -5.863281 C 4.535156 -5.535156 4.410156 -2.644531 4.230469 -1.039062 C 4.152344 -0.414062 4.449219 0.0625 4.9375 0.113281 C 5.425781 0.160156 5.722656 -0.199219 5.800781 -0.863281 C 5.984375 -2.363281 5.898438 -3.644531 5.871094 -5.136719 C 5.847656 -5.726562 5.71875 -6.3125 5.351562 -6.820312 C 4.871094 -7.492188 4.097656 -7.742188 3.347656 -7.328125 C 2.910156 -7.066406 2.542969 -6.667969 2.140625 -6.304688 C 1.90625 -6.085938 1.574219 -5.726562 1.375 -5.441406 Z M 1.375 -5.441406 "/></g></g></g><g fill="#cb7d06" fill-opacity="1"><g transform="translate(163.632714, 298.581748)"><g><path d="M 3.378906 -6.785156 C 3.207031 -6.777344 3.101562 -6.773438 2.996094 -6.773438 C 2.019531 -6.910156 1.34375 -6.4375 0.8125 -5.621094 C 0.0546875 -4.480469 -0.144531 -3.226562 0.109375 -1.914062 C 0.316406 -0.914062 0.929688 -0.207031 1.976562 -0.0664062 C 2.464844 0.0195312 2.988281 0 3.472656 -0.0507812 C 3.820312 -0.0625 4.09375 -0.140625 4.445312 -0.046875 C 5.003906 0.0703125 5.410156 -0.253906 5.425781 -0.8125 C 5.449219 -1.089844 5.371094 -1.367188 5.363281 -1.644531 C 5.261719 -2.542969 5.128906 -3.40625 5.097656 -4.308594 C 4.988281 -6.492188 4.910156 -8.710938 4.835938 -10.898438 C 4.828125 -11.070312 4.789062 -11.210938 4.75 -11.382812 C 4.632812 -11.726562 4.386719 -11.890625 4.035156 -11.914062 C 3.722656 -11.9375 3.449219 -11.789062 3.320312 -11.507812 C 3.257812 -11.332031 3.195312 -11.085938 3.203125 -10.910156 C 3.226562 -10.21875 3.285156 -9.523438 3.308594 -8.832031 C 3.332031 -8.171875 3.355469 -7.511719 3.378906 -6.785156 Z M 3.695312 -1.65625 C 3.242188 -1.640625 2.828125 -1.589844 2.445312 -1.613281 C 2.0625 -1.597656 1.777344 -1.832031 1.695312 -2.210938 C 1.484375 -3.246094 1.664062 -4.191406 2.363281 -4.976562 C 2.597656 -5.265625 2.773438 -5.234375 3.09375 -5.003906 C 3.34375 -4.804688 3.488281 -4.566406 3.503906 -4.21875 C 3.53125 -3.386719 3.59375 -2.589844 3.695312 -1.65625 Z M 3.695312 -1.65625 "/></g></g></g><g fill="#cb7d06" fill-opacity="1"><g transform="translate(175.524249, 298.178249)"><g/></g></g><g fill="#cb7d06" fill-opacity="1"><g transform="translate(183.810652, 297.933297)"><g><path d="M 1.472656 -6.703125 C 1.488281 -5.972656 1.503906 -5.3125 1.554688 -4.65625 C 1.578125 -3.683594 1.636719 -2.710938 1.695312 -1.742188 C 1.710938 -1.082031 1.96875 -0.464844 2.601562 -0.132812 C 3.410156 0.335938 4.3125 0.3125 5.210938 0.1875 C 5.664062 0.105469 5.929688 -0.351562 5.851562 -0.765625 C 5.769531 -1.214844 5.417969 -1.414062 4.898438 -1.402344 C 4.585938 -1.394531 4.238281 -1.386719 3.925781 -1.414062 C 3.367188 -1.46875 3.332031 -1.46875 3.285156 -2.058594 C 3.214844 -3.515625 3.179688 -4.972656 3.109375 -6.429688 C 3.105469 -6.53125 3.175781 -6.636719 3.171875 -6.742188 C 3.414062 -6.75 3.589844 -6.753906 3.761719 -6.757812 C 4.28125 -6.839844 4.550781 -7.125 4.539062 -7.574219 C 4.53125 -7.992188 4.246094 -8.296875 3.792969 -8.355469 C 3.582031 -8.382812 3.375 -8.378906 3.167969 -8.410156 C 3.15625 -8.757812 3.1875 -9.035156 3.179688 -9.3125 C 3.226562 -10.285156 3.257812 -10.320312 3.273438 -11.257812 C 3.261719 -11.710938 2.976562 -11.980469 2.59375 -12.042969 C 2.210938 -12.101562 1.867188 -11.886719 1.738281 -11.464844 C 1.671875 -11.324219 1.675781 -11.1875 1.644531 -11.046875 C 1.601562 -10.003906 1.601562 -9.898438 1.558594 -8.855469 C 1.527344 -8.683594 1.496094 -8.507812 1.46875 -8.300781 C 1.222656 -8.328125 0.980469 -8.355469 0.773438 -8.316406 C 0.285156 -8.304688 -0.0507812 -7.984375 -0.078125 -7.566406 C -0.0664062 -7.152344 0.253906 -6.777344 0.707031 -6.71875 C 0.949219 -6.691406 1.160156 -6.695312 1.472656 -6.703125 Z M 1.472656 -6.703125 "/></g></g></g><g fill="#cb7d06" fill-opacity="1"><g transform="translate(195.108596, 297.660361)"><g><path d="M 1.652344 -6.589844 C 1.496094 -7.628906 1.546875 -8.707031 1.527344 -9.75 C 1.519531 -10.269531 1.542969 -10.753906 1.5 -11.242188 C 1.457031 -11.691406 1.140625 -11.964844 0.757812 -11.957031 C 0.339844 -11.984375 0 -11.699219 -0.0625 -11.246094 C -0.09375 -11.175781 -0.09375 -11.074219 -0.09375 -11.003906 C -0.0625 -9.40625 -0.0703125 -7.84375 -0.0078125 -6.25 C 0.0585938 -4.445312 0.195312 -2.640625 0.296875 -0.875 C 0.335938 -0.664062 0.339844 -0.492188 0.410156 -0.320312 C 0.523438 0.09375 0.875 0.296875 1.253906 0.253906 C 1.636719 0.214844 1.875 -0.0664062 1.9375 -0.449219 C 1.933594 -0.554688 1.933594 -0.625 1.929688 -0.730469 C 1.882812 -1.527344 1.832031 -2.359375 1.785156 -3.15625 C 1.78125 -3.398438 1.742188 -3.640625 1.839844 -3.816406 C 2.074219 -4.445312 2.410156 -5.007812 2.921875 -5.433594 C 3.164062 -5.644531 3.46875 -5.964844 3.855469 -5.796875 C 4.207031 -5.59375 4.179688 -5.179688 4.148438 -4.832031 C 4.132812 -3.789062 4.082031 -2.78125 4.066406 -1.738281 C 4.039062 -1.390625 4.042969 -1.042969 4.050781 -0.695312 C 4.09375 -0.140625 4.410156 0.164062 4.863281 0.15625 C 5.347656 0.148438 5.65625 -0.238281 5.679688 -0.796875 C 5.691406 -2.113281 5.769531 -3.46875 5.746094 -4.789062 C 5.773438 -5.3125 5.660156 -5.828125 5.476562 -6.3125 C 5.078125 -7.3125 3.992188 -7.710938 3.027344 -7.308594 C 2.582031 -7.128906 2.132812 -6.84375 1.652344 -6.589844 Z M 1.652344 -6.589844 "/></g></g></g><g fill="#cb7d06" fill-opacity="1"><g transform="translate(207.517146, 297.439541)"><g><path d="M 1.738281 -2.761719 C 1.808594 -2.796875 1.878906 -2.796875 1.945312 -2.835938 C 2.257812 -2.835938 2.535156 -2.839844 2.847656 -2.878906 C 3.195312 -2.917969 3.578125 -2.957031 3.921875 -3.03125 C 4.578125 -3.210938 5.023438 -3.738281 5.085938 -4.433594 C 5.210938 -5.542969 4.46875 -6.75 3.425781 -7.121094 C 3.109375 -7.222656 2.726562 -7.285156 2.382812 -7.214844 C 1.167969 -6.957031 0.378906 -6.183594 0.152344 -4.964844 C -0.078125 -3.921875 0.140625 -2.917969 0.464844 -1.914062 C 0.644531 -1.292969 0.996094 -0.808594 1.488281 -0.363281 C 1.875 0.0117188 2.363281 0.179688 2.917969 0.105469 C 4.269531 -0.015625 5.160156 -0.996094 5.53125 -2.148438 C 5.628906 -2.496094 5.453125 -2.804688 5.136719 -2.976562 C 4.824219 -3.109375 4.476562 -3.003906 4.273438 -2.6875 C 4.171875 -2.511719 4.070312 -2.339844 4.003906 -2.164062 C 3.796875 -1.8125 3.523438 -1.566406 3.144531 -1.390625 C 2.796875 -1.246094 2.554688 -1.277344 2.273438 -1.554688 C 1.992188 -1.898438 1.777344 -2.277344 1.738281 -2.761719 Z M 1.511719 -4.21875 C 1.507812 -4.878906 1.671875 -5.398438 2.261719 -5.683594 C 2.8125 -5.933594 3.195312 -5.800781 3.480469 -5.316406 C 3.550781 -5.144531 3.621094 -4.972656 3.660156 -4.761719 C 3.695312 -4.519531 3.59375 -4.378906 3.351562 -4.34375 C 2.726562 -4.300781 2.136719 -4.261719 1.511719 -4.21875 Z M 1.511719 -4.21875 "/></g></g></g><g fill="#cb7d06" fill-opacity="1"><g transform="translate(219.484021, 297.306492)"><g/></g></g><g fill="#cb7d06" fill-opacity="1"><g transform="translate(227.765537, 297.243598)"><g><path d="M 6.144531 -3.160156 C 6.109375 -3.195312 6.074219 -3.195312 6.039062 -3.195312 C 5.96875 -3.609375 5.933594 -3.992188 5.832031 -4.375 C 5.726562 -4.929688 5.621094 -5.519531 5.484375 -6.074219 C 5.378906 -6.421875 5.171875 -6.699219 4.789062 -6.734375 C 4.371094 -6.769531 4.09375 -6.597656 3.886719 -6.214844 C 3.851562 -6.109375 3.78125 -5.972656 3.714844 -5.832031 C 3.402344 -4.964844 3.089844 -4.097656 2.742188 -3.226562 C 2.707031 -3.054688 2.636719 -2.882812 2.570312 -2.707031 C 2.257812 -3.574219 2.046875 -4.410156 1.804688 -5.277344 C 1.699219 -5.726562 1.597656 -6.214844 1.457031 -6.699219 C 1.316406 -7.082031 1.007812 -7.253906 0.660156 -7.183594 C 0.3125 -7.117188 0.0703125 -6.839844 0.0703125 -6.492188 C 0.0703125 -6.25 0.105469 -6.039062 0.171875 -5.832031 C 0.484375 -4.546875 0.832031 -3.261719 1.179688 -1.980469 C 1.320312 -1.457031 1.492188 -0.972656 1.699219 -0.519531 C 1.875 -0.105469 2.152344 0.171875 2.601562 0.136719 C 3.019531 0.136719 3.226562 -0.175781 3.402344 -0.519531 C 3.472656 -0.660156 3.539062 -0.765625 3.574219 -0.902344 C 3.75 -1.457031 3.886719 -1.980469 4.0625 -2.5 C 4.164062 -2.847656 4.269531 -3.195312 4.40625 -3.542969 C 4.546875 -3.332031 4.582031 -3.125 4.617188 -2.917969 C 4.789062 -2.1875 4.929688 -1.457031 5.171875 -0.730469 C 5.484375 0.105469 6.316406 0.171875 6.804688 -0.625 C 6.976562 -0.902344 7.082031 -1.25 7.183594 -1.597656 C 7.742188 -3.054688 8.226562 -4.546875 8.921875 -5.9375 C 9.09375 -6.285156 8.988281 -6.632812 8.746094 -6.839844 C 8.46875 -7.082031 8.050781 -7.082031 7.808594 -6.804688 C 7.707031 -6.734375 7.601562 -6.628906 7.566406 -6.492188 C 7.253906 -5.832031 6.941406 -5.171875 6.664062 -4.511719 C 6.457031 -4.0625 6.316406 -3.609375 6.144531 -3.160156 Z M 6.144531 -3.160156 "/></g></g></g><g fill="#cb7d06" fill-opacity="1"><g transform="translate(243.189935, 297.248181)"><g><path d="M 0.328125 -2.324219 C 0.464844 -1.800781 0.667969 -1.210938 1.082031 -0.6875 C 2.078125 0.605469 3.882812 0.476562 4.660156 -0.972656 C 5.398438 -2.425781 5.476562 -3.953125 5.105469 -5.519531 C 4.871094 -6.457031 4.25 -7.085938 3.3125 -7.335938 C 3.035156 -7.40625 2.722656 -7.410156 2.445312 -7.308594 C 1.542969 -7.035156 0.878906 -6.414062 0.523438 -5.515625 C 0.101562 -4.511719 0.09375 -3.46875 0.328125 -2.324219 Z M 3.644531 -4.9375 C 3.84375 -3.894531 3.769531 -2.925781 3.414062 -1.988281 C 3.378906 -1.886719 3.308594 -1.746094 3.238281 -1.644531 C 2.996094 -1.296875 2.613281 -1.300781 2.371094 -1.582031 C 2.269531 -1.683594 2.199219 -1.753906 2.164062 -1.894531 C 1.6875 -2.871094 1.554688 -3.878906 1.976562 -4.914062 C 2.085938 -5.191406 2.328125 -5.46875 2.574219 -5.640625 C 2.992188 -5.878906 3.335938 -5.738281 3.542969 -5.285156 C 3.609375 -5.148438 3.609375 -5.007812 3.644531 -4.9375 Z M 3.644531 -4.9375 "/></g></g></g><g fill="#cb7d06" fill-opacity="1"><g transform="translate(254.908982, 297.330254)"><g><path d="M 1.800781 -4.941406 C 2.8125 -5.34375 2.742188 -5.34375 4.101562 -5.847656 C 4.589844 -6.015625 4.871094 -6.359375 4.738281 -6.777344 C 4.640625 -7.195312 4.261719 -7.375 3.738281 -7.277344 C 2.867188 -7.078125 2.621094 -6.875 1.820312 -6.605469 C 1.753906 -6.78125 1.722656 -6.957031 1.6875 -7.09375 C 1.589844 -7.410156 1.277344 -7.621094 0.964844 -7.625 C 0.617188 -7.59375 0.339844 -7.390625 0.265625 -7.078125 C 0.191406 -6.90625 0.226562 -6.730469 0.222656 -6.558594 C 0.234375 -4.578125 0.277344 -2.566406 0.285156 -0.585938 C 0.316406 -0.445312 0.28125 -0.34375 0.316406 -0.238281 C 0.414062 0.109375 0.691406 0.355469 1.035156 0.359375 C 1.347656 0.363281 1.664062 0.195312 1.773438 -0.152344 C 1.808594 -0.289062 1.847656 -0.460938 1.847656 -0.636719 C 1.863281 -1.851562 1.84375 -3.066406 1.824219 -4.246094 C 1.828125 -4.453125 1.796875 -4.664062 1.800781 -4.941406 Z M 1.800781 -4.941406 "/></g></g></g><g fill="#cb7d06" fill-opacity="1"><g transform="translate(266.113487, 297.478157)"><g><path d="M 0.25 -6.105469 C 0.21875 -4.476562 0.191406 -2.84375 0.160156 -1.210938 C 0.160156 -1.109375 0.15625 -0.96875 0.15625 -0.863281 C 0.179688 -0.34375 0.488281 -0.0273438 0.902344 0.015625 C 1.355469 0.0234375 1.707031 -0.28125 1.75 -0.730469 C 1.792969 -1.148438 1.761719 -1.53125 1.769531 -1.945312 C 1.824219 -4.898438 1.878906 -7.882812 1.929688 -10.867188 C 1.933594 -11.039062 1.9375 -11.214844 1.871094 -11.421875 C 1.808594 -11.804688 1.5 -12.054688 1.152344 -12.0625 C 0.738281 -12.070312 0.421875 -11.796875 0.34375 -11.382812 C 0.304688 -11.242188 0.304688 -11.105469 0.300781 -10.964844 C 0.273438 -9.335938 0.277344 -7.738281 0.25 -6.105469 Z M 0.25 -6.105469 "/></g></g></g><g fill="#cb7d06" fill-opacity="1"><g transform="translate(274.47034, 297.623505)"><g><path d="M 3.765625 -6.578125 C 3.589844 -6.582031 3.484375 -6.585938 3.382812 -6.589844 C 2.414062 -6.785156 1.710938 -6.347656 1.136719 -5.5625 C 0.3125 -4.472656 0.0390625 -3.226562 0.21875 -1.90625 C 0.367188 -0.894531 0.941406 -0.152344 1.976562 0.046875 C 2.460938 0.160156 2.980469 0.171875 3.46875 0.148438 C 3.816406 0.15625 4.09375 0.09375 4.441406 0.207031 C 4.992188 0.359375 5.414062 0.0546875 5.460938 -0.5 C 5.503906 -0.773438 5.441406 -1.054688 5.449219 -1.332031 C 5.398438 -2.234375 5.316406 -3.105469 5.335938 -4.007812 C 5.351562 -6.195312 5.402344 -8.417969 5.453125 -10.601562 C 5.457031 -10.777344 5.425781 -10.914062 5.394531 -11.089844 C 5.300781 -11.4375 5.0625 -11.617188 4.714844 -11.660156 C 4.402344 -11.703125 4.121094 -11.570312 3.976562 -11.296875 C 3.902344 -11.125 3.828125 -10.882812 3.824219 -10.710938 C 3.808594 -10.015625 3.828125 -9.320312 3.8125 -8.625 C 3.796875 -7.96875 3.78125 -7.308594 3.765625 -6.578125 Z M 3.785156 -1.441406 C 3.332031 -1.449219 2.914062 -1.425781 2.535156 -1.46875 C 2.152344 -1.476562 1.878906 -1.726562 1.820312 -2.109375 C 1.671875 -3.15625 1.902344 -4.085938 2.648438 -4.835938 C 2.894531 -5.105469 3.070312 -5.066406 3.375 -4.816406 C 3.613281 -4.601562 3.746094 -4.355469 3.738281 -4.011719 C 3.71875 -3.175781 3.734375 -2.378906 3.785156 -1.441406 Z M 3.785156 -1.441406 "/></g></g></g></svg>